<mxfile host="app.diagrams.net" modified="2023-09-18T15:59:33.868Z" agent="Mozilla/5.0 (Windows NT 10.0; Win64; x64) AppleWebKit/537.36 (KHTML, like Gecko) Chrome/116.0.0.0 Safari/537.36" etag="GKLMu_FUgkIB2Sjr8lhj" version="21.7.5" type="device" pages="3">
  <diagram id="yTYXK1j0FSQ4NBs6C4jL" name="Home">
    <mxGraphModel dx="3923" dy="2563" grid="1" gridSize="10" guides="1" tooltips="1" connect="1" arrows="1" fold="1" page="1" pageScale="1" pageWidth="827" pageHeight="1169" math="0" shadow="0">
      <root>
        <mxCell id="0" />
        <mxCell id="1" parent="0" />
        <mxCell id="gJf4d9OAouhV74hL_UZe-67" value="" style="strokeWidth=1;shadow=0;dashed=0;align=center;html=1;shape=mxgraph.mockup.containers.browserWindow;rSize=0;strokeColor=#666666;strokeColor2=#008cff;strokeColor3=#c4c4c4;mainText=,;recursiveResize=0;sketch=1;hachureGap=4;jiggle=2;curveFitting=1;fontFamily=Architects Daughter;fontSource=https%3A%2F%2Ffonts.googleapis.com%2Fcss%3Ffamily%3DArchitects%2BDaughter;fontSize=20;movable=1;resizable=1;rotatable=1;deletable=1;editable=1;locked=0;connectable=1;" parent="1" vertex="1">
          <mxGeometry x="-650" y="-1070" width="920" height="620" as="geometry" />
        </mxCell>
        <mxCell id="gJf4d9OAouhV74hL_UZe-68" value="Page 1" style="strokeWidth=1;shadow=0;dashed=0;align=center;html=1;shape=mxgraph.mockup.containers.anchor;fontSize=17;fontColor=#666666;align=left;whiteSpace=wrap;sketch=1;hachureGap=4;jiggle=2;curveFitting=1;fontFamily=Architects Daughter;fontSource=https%3A%2F%2Ffonts.googleapis.com%2Fcss%3Ffamily%3DArchitects%2BDaughter;" parent="gJf4d9OAouhV74hL_UZe-67" vertex="1">
          <mxGeometry x="60" y="12" width="110" height="26" as="geometry" />
        </mxCell>
        <mxCell id="gJf4d9OAouhV74hL_UZe-69" value="https://www.myapp.com/home" style="strokeWidth=1;shadow=0;dashed=0;align=center;html=1;shape=mxgraph.mockup.containers.anchor;rSize=0;fontSize=17;fontColor=#666666;align=left;sketch=1;hachureGap=4;jiggle=2;curveFitting=1;fontFamily=Architects Daughter;fontSource=https%3A%2F%2Ffonts.googleapis.com%2Fcss%3Ffamily%3DArchitects%2BDaughter;" parent="gJf4d9OAouhV74hL_UZe-67" vertex="1">
          <mxGeometry x="130" y="60" width="250" height="26" as="geometry" />
        </mxCell>
        <mxCell id="gJf4d9OAouhV74hL_UZe-55" value="" style="strokeWidth=1;shadow=0;dashed=0;align=center;html=1;shape=mxgraph.mockup.forms.rrect;rSize=0;sketch=1;hachureGap=4;jiggle=2;curveFitting=1;fontFamily=Architects Daughter;fontSource=https%3A%2F%2Ffonts.googleapis.com%2Fcss%3Ffamily%3DArchitects%2BDaughter;fontSize=20;fillColor=#f5f5f5;fontColor=#333333;strokeColor=#666666;" parent="gJf4d9OAouhV74hL_UZe-67" vertex="1">
          <mxGeometry x="360" y="190" width="200" height="280" as="geometry" />
        </mxCell>
        <mxCell id="gJf4d9OAouhV74hL_UZe-56" value="Tambah keinginan" style="strokeWidth=1;shadow=0;dashed=0;align=center;html=1;shape=mxgraph.mockup.forms.anchor;fontSize=12;fontColor=#666666;align=left;resizeWidth=1;spacingLeft=0;sketch=1;hachureGap=4;jiggle=2;curveFitting=1;fontFamily=Architects Daughter;fontSource=https%3A%2F%2Ffonts.googleapis.com%2Fcss%3Ffamily%3DArchitects%2BDaughter;" parent="gJf4d9OAouhV74hL_UZe-55" vertex="1">
          <mxGeometry width="100" height="20" relative="1" as="geometry">
            <mxPoint x="10" y="10" as="offset" />
          </mxGeometry>
        </mxCell>
        <mxCell id="gJf4d9OAouhV74hL_UZe-57" value="" style="shape=line;strokeColor=#ddeeff;strokeWidth=2;html=1;resizeWidth=1;sketch=1;hachureGap=4;jiggle=2;curveFitting=1;fontFamily=Architects Daughter;fontSource=https%3A%2F%2Ffonts.googleapis.com%2Fcss%3Ffamily%3DArchitects%2BDaughter;fontSize=20;" parent="gJf4d9OAouhV74hL_UZe-55" vertex="1">
          <mxGeometry width="180" height="10" relative="1" as="geometry">
            <mxPoint x="10" y="30" as="offset" />
          </mxGeometry>
        </mxCell>
        <mxCell id="gJf4d9OAouhV74hL_UZe-58" value="Judul" style="strokeWidth=1;shadow=0;dashed=0;align=center;html=1;shape=mxgraph.mockup.forms.anchor;fontSize=12;fontColor=#666666;align=left;resizeWidth=1;spacingLeft=0;sketch=1;hachureGap=4;jiggle=2;curveFitting=1;fontFamily=Architects Daughter;fontSource=https%3A%2F%2Ffonts.googleapis.com%2Fcss%3Ffamily%3DArchitects%2BDaughter;" parent="gJf4d9OAouhV74hL_UZe-55" vertex="1">
          <mxGeometry width="100" height="20" relative="1" as="geometry">
            <mxPoint x="10" y="40" as="offset" />
          </mxGeometry>
        </mxCell>
        <mxCell id="gJf4d9OAouhV74hL_UZe-60" value="Deskripsi" style="strokeWidth=1;shadow=0;dashed=0;align=center;html=1;shape=mxgraph.mockup.forms.anchor;fontSize=12;fontColor=#666666;align=left;resizeWidth=1;spacingLeft=0;sketch=1;hachureGap=4;jiggle=2;curveFitting=1;fontFamily=Architects Daughter;fontSource=https%3A%2F%2Ffonts.googleapis.com%2Fcss%3Ffamily%3DArchitects%2BDaughter;" parent="gJf4d9OAouhV74hL_UZe-55" vertex="1">
          <mxGeometry width="100" height="20" relative="1" as="geometry">
            <mxPoint x="10" y="95" as="offset" />
          </mxGeometry>
        </mxCell>
        <mxCell id="gJf4d9OAouhV74hL_UZe-61" value="lorem ipsum" style="strokeWidth=1;shadow=0;dashed=0;align=center;html=1;shape=mxgraph.mockup.forms.rrect;rSize=0;strokeColor=#999999;fontColor=#666666;align=left;spacingLeft=5;resizeWidth=1;sketch=1;hachureGap=4;jiggle=2;curveFitting=1;fontFamily=Architects Daughter;fontSource=https%3A%2F%2Ffonts.googleapis.com%2Fcss%3Ffamily%3DArchitects%2BDaughter;fontSize=20;" parent="gJf4d9OAouhV74hL_UZe-55" vertex="1">
          <mxGeometry width="150" height="25" relative="1" as="geometry">
            <mxPoint x="10" y="115" as="offset" />
          </mxGeometry>
        </mxCell>
        <mxCell id="gJf4d9OAouhV74hL_UZe-65" value="Tambahkan" style="strokeWidth=1;shadow=0;dashed=0;align=center;html=1;shape=mxgraph.mockup.forms.anchor;fontSize=12;fontColor=#666666;align=left;spacingLeft=0;resizeWidth=1;sketch=1;hachureGap=4;jiggle=2;curveFitting=1;fontFamily=Architects Daughter;fontSource=https%3A%2F%2Ffonts.googleapis.com%2Fcss%3Ffamily%3DArchitects%2BDaughter;" parent="gJf4d9OAouhV74hL_UZe-55" vertex="1">
          <mxGeometry y="1" width="80" height="20" relative="1" as="geometry">
            <mxPoint x="110" y="-120" as="offset" />
          </mxGeometry>
        </mxCell>
        <mxCell id="gJf4d9OAouhV74hL_UZe-66" value="SIGN UP" style="strokeWidth=1;shadow=0;dashed=0;align=center;html=1;shape=mxgraph.mockup.forms.rrect;rSize=5;strokeColor=none;fontColor=#ffffff;fillColor=#66bbff;fontSize=16;fontStyle=1;sketch=1;hachureGap=4;jiggle=2;curveFitting=1;fontFamily=Architects Daughter;fontSource=https%3A%2F%2Ffonts.googleapis.com%2Fcss%3Ffamily%3DArchitects%2BDaughter;" parent="gJf4d9OAouhV74hL_UZe-55" vertex="1">
          <mxGeometry y="1" width="80" height="30" relative="1" as="geometry">
            <mxPoint x="20" y="-50" as="offset" />
          </mxGeometry>
        </mxCell>
        <mxCell id="gJf4d9OAouhV74hL_UZe-59" value="Lorem ipsum" style="strokeWidth=1;shadow=0;dashed=0;align=center;html=1;shape=mxgraph.mockup.forms.rrect;rSize=0;align=left;spacingLeft=5;resizeWidth=1;sketch=1;hachureGap=4;jiggle=2;curveFitting=1;fontFamily=Architects Daughter;fontSource=https%3A%2F%2Ffonts.googleapis.com%2Fcss%3Ffamily%3DArchitects%2BDaughter;fontSize=20;fillColor=#f5f5f5;fontColor=#333333;strokeColor=#666666;" parent="gJf4d9OAouhV74hL_UZe-55" vertex="1">
          <mxGeometry width="150" height="25" relative="1" as="geometry">
            <mxPoint x="10" y="60" as="offset" />
          </mxGeometry>
        </mxCell>
        <mxCell id="CSSRmi_b8OgEoCo56S_m-24" value="Batal" style="strokeWidth=1;shadow=0;dashed=0;align=center;html=1;shape=mxgraph.mockup.forms.anchor;fontSize=12;fontColor=#666666;align=left;spacingLeft=0;resizeWidth=1;sketch=1;hachureGap=4;jiggle=2;curveFitting=1;fontFamily=Architects Daughter;fontSource=https%3A%2F%2Ffonts.googleapis.com%2Fcss%3Ffamily%3DArchitects%2BDaughter;" parent="gJf4d9OAouhV74hL_UZe-55" vertex="1">
          <mxGeometry y="1" width="80" height="20" relative="1" as="geometry">
            <mxPoint x="19" y="-120" as="offset" />
          </mxGeometry>
        </mxCell>
        <mxCell id="CSSRmi_b8OgEoCo56S_m-25" value="" style="rounded=0;whiteSpace=wrap;html=1;sketch=1;hachureGap=4;jiggle=2;curveFitting=1;fontFamily=Architects Daughter;fontSource=https%3A%2F%2Ffonts.googleapis.com%2Fcss%3Ffamily%3DArchitects%2BDaughter;fontSize=20;" parent="gJf4d9OAouhV74hL_UZe-67" vertex="1">
          <mxGeometry y="110" width="180" height="510" as="geometry" />
        </mxCell>
        <mxCell id="CSSRmi_b8OgEoCo56S_m-26" value="Home" style="text;html=1;strokeColor=none;fillColor=none;align=center;verticalAlign=middle;whiteSpace=wrap;rounded=0;fontSize=20;fontFamily=Architects Daughter;" parent="gJf4d9OAouhV74hL_UZe-67" vertex="1">
          <mxGeometry x="45" y="140" width="60" height="30" as="geometry" />
        </mxCell>
        <mxCell id="CSSRmi_b8OgEoCo56S_m-27" value="Arsip" style="text;html=1;strokeColor=none;fillColor=none;align=center;verticalAlign=middle;whiteSpace=wrap;rounded=0;fontSize=20;fontFamily=Architects Daughter;" parent="gJf4d9OAouhV74hL_UZe-67" vertex="1">
          <mxGeometry x="45" y="200" width="60" height="30" as="geometry" />
        </mxCell>
        <mxCell id="JpSKSIwarw67j7xKFgFl-1" value="" style="strokeWidth=1;shadow=0;dashed=0;align=center;html=1;shape=mxgraph.mockup.containers.browserWindow;rSize=0;strokeColor=#666666;strokeColor2=#008cff;strokeColor3=#c4c4c4;mainText=,;recursiveResize=0;sketch=1;hachureGap=4;jiggle=2;curveFitting=1;fontFamily=Architects Daughter;fontSource=https%3A%2F%2Ffonts.googleapis.com%2Fcss%3Ffamily%3DArchitects%2BDaughter;fontSize=20;movable=1;resizable=1;rotatable=1;deletable=1;editable=1;locked=0;connectable=1;" parent="1" vertex="1">
          <mxGeometry x="-1610" y="-1080" width="910" height="630" as="geometry" />
        </mxCell>
        <mxCell id="JpSKSIwarw67j7xKFgFl-2" value="Page 1" style="strokeWidth=1;shadow=0;dashed=0;align=center;html=1;shape=mxgraph.mockup.containers.anchor;fontSize=17;fontColor=#666666;align=left;whiteSpace=wrap;sketch=1;hachureGap=4;jiggle=2;curveFitting=1;fontFamily=Architects Daughter;fontSource=https%3A%2F%2Ffonts.googleapis.com%2Fcss%3Ffamily%3DArchitects%2BDaughter;" parent="JpSKSIwarw67j7xKFgFl-1" vertex="1">
          <mxGeometry x="60" y="12" width="110" height="26" as="geometry" />
        </mxCell>
        <mxCell id="JpSKSIwarw67j7xKFgFl-3" value="https://www.myapp.com/home" style="strokeWidth=1;shadow=0;dashed=0;align=center;html=1;shape=mxgraph.mockup.containers.anchor;rSize=0;fontSize=17;fontColor=#666666;align=left;sketch=1;hachureGap=4;jiggle=2;curveFitting=1;fontFamily=Architects Daughter;fontSource=https%3A%2F%2Ffonts.googleapis.com%2Fcss%3Ffamily%3DArchitects%2BDaughter;" parent="JpSKSIwarw67j7xKFgFl-1" vertex="1">
          <mxGeometry x="130" y="60" width="250" height="26" as="geometry" />
        </mxCell>
        <mxCell id="gJf4d9OAouhV74hL_UZe-21" value="Keinginan" style="swimlane;fontStyle=0;childLayout=stackLayout;horizontal=1;startSize=30;horizontalStack=0;resizeParent=1;resizeParentMax=0;resizeLast=0;collapsible=1;marginBottom=0;whiteSpace=wrap;html=1;sketch=1;hachureGap=4;jiggle=2;curveFitting=1;fontFamily=Architects Daughter;fontSource=https%3A%2F%2Ffonts.googleapis.com%2Fcss%3Ffamily%3DArchitects%2BDaughter;fontSize=20;" parent="JpSKSIwarw67j7xKFgFl-1" vertex="1">
          <mxGeometry x="76.5" y="260" width="340" height="150" as="geometry" />
        </mxCell>
        <mxCell id="gJf4d9OAouhV74hL_UZe-22" value="&lt;font style=&quot;font-size: 10px;&quot;&gt;Judul kegiatan&lt;/font&gt;" style="text;strokeColor=none;fillColor=none;align=left;verticalAlign=middle;spacingLeft=4;spacingRight=4;overflow=hidden;points=[[0,0.5],[1,0.5]];portConstraint=eastwest;rotatable=0;whiteSpace=wrap;html=1;fontSize=20;fontFamily=Architects Daughter;" parent="gJf4d9OAouhV74hL_UZe-21" vertex="1">
          <mxGeometry y="30" width="340" height="30" as="geometry" />
        </mxCell>
        <mxCell id="CSSRmi_b8OgEoCo56S_m-5" value="&lt;font style=&quot;font-size: 10px;&quot;&gt;Judul kegiatan&lt;/font&gt;" style="text;strokeColor=none;fillColor=none;align=left;verticalAlign=middle;spacingLeft=4;spacingRight=4;overflow=hidden;points=[[0,0.5],[1,0.5]];portConstraint=eastwest;rotatable=0;whiteSpace=wrap;html=1;fontSize=20;fontFamily=Architects Daughter;" parent="gJf4d9OAouhV74hL_UZe-21" vertex="1">
          <mxGeometry y="60" width="340" height="30" as="geometry" />
        </mxCell>
        <mxCell id="CSSRmi_b8OgEoCo56S_m-6" value="&lt;font style=&quot;font-size: 10px;&quot;&gt;Judul kegiatan&lt;/font&gt;" style="text;strokeColor=none;fillColor=none;align=left;verticalAlign=middle;spacingLeft=4;spacingRight=4;overflow=hidden;points=[[0,0.5],[1,0.5]];portConstraint=eastwest;rotatable=0;whiteSpace=wrap;html=1;fontSize=20;fontFamily=Architects Daughter;" parent="gJf4d9OAouhV74hL_UZe-21" vertex="1">
          <mxGeometry y="90" width="340" height="30" as="geometry" />
        </mxCell>
        <mxCell id="CSSRmi_b8OgEoCo56S_m-7" value="&lt;font style=&quot;font-size: 10px;&quot;&gt;Judul kegiatan&lt;/font&gt;" style="text;strokeColor=none;fillColor=none;align=left;verticalAlign=middle;spacingLeft=4;spacingRight=4;overflow=hidden;points=[[0,0.5],[1,0.5]];portConstraint=eastwest;rotatable=0;whiteSpace=wrap;html=1;fontSize=20;fontFamily=Architects Daughter;" parent="gJf4d9OAouhV74hL_UZe-21" vertex="1">
          <mxGeometry y="120" width="340" height="30" as="geometry" />
        </mxCell>
        <mxCell id="CSSRmi_b8OgEoCo56S_m-1" value="" style="rounded=1;whiteSpace=wrap;html=1;sketch=1;hachureGap=4;jiggle=2;curveFitting=1;fontFamily=Architects Daughter;fontSource=https%3A%2F%2Ffonts.googleapis.com%2Fcss%3Ffamily%3DArchitects%2BDaughter;fontSize=20;" parent="JpSKSIwarw67j7xKFgFl-1" vertex="1">
          <mxGeometry y="110" width="910" height="60" as="geometry" />
        </mxCell>
        <mxCell id="CSSRmi_b8OgEoCo56S_m-3" value="Kanban Board" style="text;html=1;strokeColor=none;fillColor=none;align=center;verticalAlign=middle;whiteSpace=wrap;rounded=0;fontSize=20;fontFamily=Architects Daughter;" parent="JpSKSIwarw67j7xKFgFl-1" vertex="1">
          <mxGeometry x="60" y="125" width="200" height="30" as="geometry" />
        </mxCell>
        <mxCell id="CSSRmi_b8OgEoCo56S_m-4" value="" style="rounded=0;whiteSpace=wrap;html=1;sketch=1;hachureGap=4;jiggle=2;curveFitting=1;fontFamily=Architects Daughter;fontSource=https%3A%2F%2Ffonts.googleapis.com%2Fcss%3Ffamily%3DArchitects%2BDaughter;fontSize=20;fillColor=#C130FF;strokeColor=#d79b00;gradientColor=none;" parent="JpSKSIwarw67j7xKFgFl-1" vertex="1">
          <mxGeometry x="20" y="120" width="40" height="40" as="geometry" />
        </mxCell>
        <mxCell id="CSSRmi_b8OgEoCo56S_m-8" value="Berjalan" style="swimlane;fontStyle=0;childLayout=stackLayout;horizontal=1;startSize=30;horizontalStack=0;resizeParent=1;resizeParentMax=0;resizeLast=0;collapsible=1;marginBottom=0;whiteSpace=wrap;html=1;sketch=1;hachureGap=4;jiggle=2;curveFitting=1;fontFamily=Architects Daughter;fontSource=https%3A%2F%2Ffonts.googleapis.com%2Fcss%3Ffamily%3DArchitects%2BDaughter;fontSize=20;" parent="JpSKSIwarw67j7xKFgFl-1" vertex="1">
          <mxGeometry x="510" y="260" width="347" height="150" as="geometry" />
        </mxCell>
        <mxCell id="CSSRmi_b8OgEoCo56S_m-9" value="&lt;font style=&quot;font-size: 10px;&quot;&gt;Judul kegiatan&lt;/font&gt;" style="text;strokeColor=none;fillColor=none;align=left;verticalAlign=middle;spacingLeft=4;spacingRight=4;overflow=hidden;points=[[0,0.5],[1,0.5]];portConstraint=eastwest;rotatable=0;whiteSpace=wrap;html=1;fontSize=20;fontFamily=Architects Daughter;" parent="CSSRmi_b8OgEoCo56S_m-8" vertex="1">
          <mxGeometry y="30" width="347" height="30" as="geometry" />
        </mxCell>
        <mxCell id="CSSRmi_b8OgEoCo56S_m-10" value="&lt;font style=&quot;font-size: 10px;&quot;&gt;Judul kegiatan&lt;/font&gt;" style="text;strokeColor=none;fillColor=none;align=left;verticalAlign=middle;spacingLeft=4;spacingRight=4;overflow=hidden;points=[[0,0.5],[1,0.5]];portConstraint=eastwest;rotatable=0;whiteSpace=wrap;html=1;fontSize=20;fontFamily=Architects Daughter;" parent="CSSRmi_b8OgEoCo56S_m-8" vertex="1">
          <mxGeometry y="60" width="347" height="30" as="geometry" />
        </mxCell>
        <mxCell id="CSSRmi_b8OgEoCo56S_m-11" value="&lt;font style=&quot;font-size: 10px;&quot;&gt;Judul kegiatan&lt;/font&gt;" style="text;strokeColor=none;fillColor=none;align=left;verticalAlign=middle;spacingLeft=4;spacingRight=4;overflow=hidden;points=[[0,0.5],[1,0.5]];portConstraint=eastwest;rotatable=0;whiteSpace=wrap;html=1;fontSize=20;fontFamily=Architects Daughter;" parent="CSSRmi_b8OgEoCo56S_m-8" vertex="1">
          <mxGeometry y="90" width="347" height="30" as="geometry" />
        </mxCell>
        <mxCell id="CSSRmi_b8OgEoCo56S_m-12" value="&lt;font style=&quot;font-size: 10px;&quot;&gt;Judul kegiatan&lt;/font&gt;" style="text;strokeColor=none;fillColor=none;align=left;verticalAlign=middle;spacingLeft=4;spacingRight=4;overflow=hidden;points=[[0,0.5],[1,0.5]];portConstraint=eastwest;rotatable=0;whiteSpace=wrap;html=1;fontSize=20;fontFamily=Architects Daughter;" parent="CSSRmi_b8OgEoCo56S_m-8" vertex="1">
          <mxGeometry y="120" width="347" height="30" as="geometry" />
        </mxCell>
        <mxCell id="CSSRmi_b8OgEoCo56S_m-13" value="Selesai" style="swimlane;fontStyle=0;childLayout=stackLayout;horizontal=1;startSize=30;horizontalStack=0;resizeParent=1;resizeParentMax=0;resizeLast=0;collapsible=1;marginBottom=0;whiteSpace=wrap;html=1;sketch=1;hachureGap=4;jiggle=2;curveFitting=1;fontFamily=Architects Daughter;fontSource=https%3A%2F%2Ffonts.googleapis.com%2Fcss%3Ffamily%3DArchitects%2BDaughter;fontSize=20;" parent="JpSKSIwarw67j7xKFgFl-1" vertex="1">
          <mxGeometry x="73" y="450" width="347" height="150" as="geometry" />
        </mxCell>
        <mxCell id="CSSRmi_b8OgEoCo56S_m-14" value="&lt;font style=&quot;font-size: 10px;&quot;&gt;Judul kegiatan&lt;/font&gt;" style="text;strokeColor=none;fillColor=none;align=left;verticalAlign=middle;spacingLeft=4;spacingRight=4;overflow=hidden;points=[[0,0.5],[1,0.5]];portConstraint=eastwest;rotatable=0;whiteSpace=wrap;html=1;fontSize=20;fontFamily=Architects Daughter;" parent="CSSRmi_b8OgEoCo56S_m-13" vertex="1">
          <mxGeometry y="30" width="347" height="30" as="geometry" />
        </mxCell>
        <mxCell id="CSSRmi_b8OgEoCo56S_m-15" value="&lt;font style=&quot;font-size: 10px;&quot;&gt;Judul kegiatan&lt;/font&gt;" style="text;strokeColor=none;fillColor=none;align=left;verticalAlign=middle;spacingLeft=4;spacingRight=4;overflow=hidden;points=[[0,0.5],[1,0.5]];portConstraint=eastwest;rotatable=0;whiteSpace=wrap;html=1;fontSize=20;fontFamily=Architects Daughter;" parent="CSSRmi_b8OgEoCo56S_m-13" vertex="1">
          <mxGeometry y="60" width="347" height="30" as="geometry" />
        </mxCell>
        <mxCell id="CSSRmi_b8OgEoCo56S_m-16" value="&lt;font style=&quot;font-size: 10px;&quot;&gt;Judul kegiatan&lt;/font&gt;" style="text;strokeColor=none;fillColor=none;align=left;verticalAlign=middle;spacingLeft=4;spacingRight=4;overflow=hidden;points=[[0,0.5],[1,0.5]];portConstraint=eastwest;rotatable=0;whiteSpace=wrap;html=1;fontSize=20;fontFamily=Architects Daughter;" parent="CSSRmi_b8OgEoCo56S_m-13" vertex="1">
          <mxGeometry y="90" width="347" height="30" as="geometry" />
        </mxCell>
        <mxCell id="CSSRmi_b8OgEoCo56S_m-17" value="&lt;font style=&quot;font-size: 10px;&quot;&gt;Judul kegiatan&lt;/font&gt;" style="text;strokeColor=none;fillColor=none;align=left;verticalAlign=middle;spacingLeft=4;spacingRight=4;overflow=hidden;points=[[0,0.5],[1,0.5]];portConstraint=eastwest;rotatable=0;whiteSpace=wrap;html=1;fontSize=20;fontFamily=Architects Daughter;" parent="CSSRmi_b8OgEoCo56S_m-13" vertex="1">
          <mxGeometry y="120" width="347" height="30" as="geometry" />
        </mxCell>
        <mxCell id="CSSRmi_b8OgEoCo56S_m-18" value="Ditunda" style="swimlane;fontStyle=0;childLayout=stackLayout;horizontal=1;startSize=30;horizontalStack=0;resizeParent=1;resizeParentMax=0;resizeLast=0;collapsible=1;marginBottom=0;whiteSpace=wrap;html=1;sketch=1;hachureGap=4;jiggle=2;curveFitting=1;fontFamily=Architects Daughter;fontSource=https%3A%2F%2Ffonts.googleapis.com%2Fcss%3Ffamily%3DArchitects%2BDaughter;fontSize=20;" parent="JpSKSIwarw67j7xKFgFl-1" vertex="1">
          <mxGeometry x="510" y="450" width="347" height="150" as="geometry" />
        </mxCell>
        <mxCell id="CSSRmi_b8OgEoCo56S_m-19" value="&lt;font style=&quot;font-size: 10px;&quot;&gt;Judul kegiatan&lt;/font&gt;" style="text;strokeColor=none;fillColor=none;align=left;verticalAlign=middle;spacingLeft=4;spacingRight=4;overflow=hidden;points=[[0,0.5],[1,0.5]];portConstraint=eastwest;rotatable=0;whiteSpace=wrap;html=1;fontSize=20;fontFamily=Architects Daughter;" parent="CSSRmi_b8OgEoCo56S_m-18" vertex="1">
          <mxGeometry y="30" width="347" height="30" as="geometry" />
        </mxCell>
        <mxCell id="CSSRmi_b8OgEoCo56S_m-20" value="&lt;font style=&quot;font-size: 10px;&quot;&gt;Judul kegiatan&lt;/font&gt;" style="text;strokeColor=none;fillColor=none;align=left;verticalAlign=middle;spacingLeft=4;spacingRight=4;overflow=hidden;points=[[0,0.5],[1,0.5]];portConstraint=eastwest;rotatable=0;whiteSpace=wrap;html=1;fontSize=20;fontFamily=Architects Daughter;" parent="CSSRmi_b8OgEoCo56S_m-18" vertex="1">
          <mxGeometry y="60" width="347" height="30" as="geometry" />
        </mxCell>
        <mxCell id="CSSRmi_b8OgEoCo56S_m-21" value="&lt;font style=&quot;font-size: 10px;&quot;&gt;Judul kegiatan&lt;/font&gt;" style="text;strokeColor=none;fillColor=none;align=left;verticalAlign=middle;spacingLeft=4;spacingRight=4;overflow=hidden;points=[[0,0.5],[1,0.5]];portConstraint=eastwest;rotatable=0;whiteSpace=wrap;html=1;fontSize=20;fontFamily=Architects Daughter;" parent="CSSRmi_b8OgEoCo56S_m-18" vertex="1">
          <mxGeometry y="90" width="347" height="30" as="geometry" />
        </mxCell>
        <mxCell id="CSSRmi_b8OgEoCo56S_m-22" value="&lt;font style=&quot;font-size: 10px;&quot;&gt;Judul kegiatan&lt;/font&gt;" style="text;strokeColor=none;fillColor=none;align=left;verticalAlign=middle;spacingLeft=4;spacingRight=4;overflow=hidden;points=[[0,0.5],[1,0.5]];portConstraint=eastwest;rotatable=0;whiteSpace=wrap;html=1;fontSize=20;fontFamily=Architects Daughter;" parent="CSSRmi_b8OgEoCo56S_m-18" vertex="1">
          <mxGeometry y="120" width="347" height="30" as="geometry" />
        </mxCell>
        <mxCell id="CSSRmi_b8OgEoCo56S_m-23" value="+ Tambahkan Kegiatan" style="strokeWidth=1;shadow=0;dashed=0;align=center;html=1;shape=mxgraph.mockup.buttons.button;strokeColor=#666666;fontColor=#ffffff;mainText=;buttonStyle=round;fontSize=17;fontStyle=1;fillColor=#008cff;whiteSpace=wrap;sketch=1;hachureGap=4;jiggle=2;curveFitting=1;fontFamily=Architects Daughter;fontSource=https%3A%2F%2Ffonts.googleapis.com%2Fcss%3Ffamily%3DArchitects%2BDaughter;" parent="JpSKSIwarw67j7xKFgFl-1" vertex="1">
          <mxGeometry x="76.5" y="190" width="150" height="50" as="geometry" />
        </mxCell>
        <mxCell id="CSSRmi_b8OgEoCo56S_m-29" value="" style="endArrow=classic;html=1;rounded=0;sketch=1;hachureGap=4;jiggle=2;curveFitting=1;fontFamily=Architects Daughter;fontSource=https%3A%2F%2Ffonts.googleapis.com%2Fcss%3Ffamily%3DArchitects%2BDaughter;fontSize=16;entryX=0.475;entryY=0;entryDx=0;entryDy=0;entryPerimeter=0;exitX=1.063;exitY=0.58;exitDx=0;exitDy=0;exitPerimeter=0;" parent="1" source="CSSRmi_b8OgEoCo56S_m-23" target="gJf4d9OAouhV74hL_UZe-55" edge="1">
          <mxGeometry width="50" height="50" relative="1" as="geometry">
            <mxPoint x="-960" y="-430" as="sourcePoint" />
            <mxPoint x="-910" y="-480" as="targetPoint" />
          </mxGeometry>
        </mxCell>
        <mxCell id="WtF6gQOGiwUqIiUqzte2-1" value="" style="endArrow=classic;html=1;rounded=0;sketch=1;hachureGap=4;jiggle=2;curveFitting=1;fontFamily=Architects Daughter;fontSource=https%3A%2F%2Ffonts.googleapis.com%2Fcss%3Ffamily%3DArchitects%2BDaughter;fontSize=16;exitX=0;exitY=0.5;exitDx=0;exitDy=0;entryX=-0.011;entryY=0.061;entryDx=0;entryDy=0;entryPerimeter=0;" edge="1" parent="1" source="CSSRmi_b8OgEoCo56S_m-3" target="CSSRmi_b8OgEoCo56S_m-25">
          <mxGeometry width="50" height="50" relative="1" as="geometry">
            <mxPoint x="-840" y="-730" as="sourcePoint" />
            <mxPoint x="-790" y="-780" as="targetPoint" />
            <Array as="points">
              <mxPoint x="-1130" y="-1110" />
            </Array>
          </mxGeometry>
        </mxCell>
        <mxCell id="jMNJUcHfpG2Cbdji03SO-1" value="" style="group" vertex="1" connectable="0" parent="1">
          <mxGeometry x="-1240" y="-380" width="350" height="50" as="geometry" />
        </mxCell>
        <mxCell id="jMNJUcHfpG2Cbdji03SO-2" value="&lt;font style=&quot;font-size: 20px;&quot;&gt;Judul kegiatan&lt;/font&gt;" style="rounded=0;whiteSpace=wrap;html=1;sketch=1;hachureGap=4;jiggle=2;curveFitting=1;fontFamily=Architects Daughter;fontSource=https://fonts.googleapis.com/css?family=Architects+Daughter;fontSize=20;align=left;container=0;" vertex="1" parent="jMNJUcHfpG2Cbdji03SO-1">
          <mxGeometry width="350" height="50" as="geometry" />
        </mxCell>
        <mxCell id="jMNJUcHfpG2Cbdji03SO-3" value="" style="triangle;whiteSpace=wrap;html=1;sketch=1;hachureGap=4;jiggle=2;curveFitting=1;fontFamily=Architects Daughter;fontSource=https://fonts.googleapis.com/css?family=Architects+Daughter;fontSize=20;rotation=90;container=0;" vertex="1" parent="jMNJUcHfpG2Cbdji03SO-1">
          <mxGeometry x="300.6134969325153" y="16.666666666666686" width="21.47239263803681" height="16.666666666666664" as="geometry" />
        </mxCell>
        <mxCell id="jMNJUcHfpG2Cbdji03SO-5" value="" style="group" vertex="1" connectable="0" parent="1">
          <mxGeometry x="-1240" y="-280" width="350" height="50" as="geometry" />
        </mxCell>
        <mxCell id="jMNJUcHfpG2Cbdji03SO-6" value="&lt;font style=&quot;font-size: 23px;&quot;&gt;Log terbaru&lt;/font&gt;" style="rounded=0;whiteSpace=wrap;html=1;sketch=1;hachureGap=4;jiggle=2;curveFitting=1;fontFamily=Architects Daughter;fontSource=https://fonts.googleapis.com/css?family=Architects+Daughter;fontSize=20;align=left;container=0;" vertex="1" parent="jMNJUcHfpG2Cbdji03SO-5">
          <mxGeometry width="350" height="50" as="geometry" />
        </mxCell>
        <mxCell id="jMNJUcHfpG2Cbdji03SO-9" value="" style="group" vertex="1" connectable="0" parent="1">
          <mxGeometry x="-1240" y="-330" width="350" height="50" as="geometry" />
        </mxCell>
        <mxCell id="jMNJUcHfpG2Cbdji03SO-10" value="" style="rounded=0;whiteSpace=wrap;html=1;sketch=1;hachureGap=4;jiggle=2;curveFitting=1;fontFamily=Architects Daughter;fontSource=https://fonts.googleapis.com/css?family=Architects+Daughter;fontSize=20;align=left;container=0;" vertex="1" parent="jMNJUcHfpG2Cbdji03SO-9">
          <mxGeometry width="350" height="50" as="geometry" />
        </mxCell>
        <mxCell id="jMNJUcHfpG2Cbdji03SO-4" value="&lt;font style=&quot;font-size: 14px;&quot;&gt;Arsipkan&lt;/font&gt;" style="rounded=0;whiteSpace=wrap;html=1;sketch=1;hachureGap=4;jiggle=2;curveFitting=1;fontFamily=Architects Daughter;fontSource=https://fonts.googleapis.com/css?family=Architects+Daughter;fontSize=5;container=0;" vertex="1" parent="jMNJUcHfpG2Cbdji03SO-9">
          <mxGeometry x="10.003926380368085" y="8.333333333333314" width="49.38650306748467" height="33.33333333333333" as="geometry" />
        </mxCell>
        <mxCell id="jMNJUcHfpG2Cbdji03SO-13" value="&lt;font style=&quot;font-size: 14px;&quot;&gt;Piindahkan&lt;/font&gt;" style="rounded=0;whiteSpace=wrap;html=1;sketch=1;hachureGap=4;jiggle=2;curveFitting=1;fontFamily=Architects Daughter;fontSource=https://fonts.googleapis.com/css?family=Architects+Daughter;fontSize=5;container=0;" vertex="1" parent="jMNJUcHfpG2Cbdji03SO-9">
          <mxGeometry x="160" y="9.17" width="80" height="31.67" as="geometry" />
        </mxCell>
        <mxCell id="jMNJUcHfpG2Cbdji03SO-14" value="&lt;font style=&quot;font-size: 14px;&quot;&gt;Detail&lt;/font&gt;" style="rounded=0;whiteSpace=wrap;html=1;sketch=1;hachureGap=4;jiggle=2;curveFitting=1;fontFamily=Architects Daughter;fontSource=https://fonts.googleapis.com/css?family=Architects+Daughter;fontSize=5;container=0;" vertex="1" parent="jMNJUcHfpG2Cbdji03SO-9">
          <mxGeometry x="70" y="9.170000000000002" width="80" height="31.67" as="geometry" />
        </mxCell>
        <mxCell id="jMNJUcHfpG2Cbdji03SO-15" value="" style="endArrow=classic;html=1;rounded=0;sketch=1;hachureGap=4;jiggle=2;curveFitting=1;fontFamily=Architects Daughter;fontSource=https%3A%2F%2Ffonts.googleapis.com%2Fcss%3Ffamily%3DArchitects%2BDaughter;fontSize=16;entryX=0.5;entryY=0;entryDx=0;entryDy=0;" edge="1" parent="1" source="CSSRmi_b8OgEoCo56S_m-6" target="jMNJUcHfpG2Cbdji03SO-2">
          <mxGeometry width="50" height="50" relative="1" as="geometry">
            <mxPoint x="-1000" y="-380" as="sourcePoint" />
            <mxPoint x="-950" y="-430" as="targetPoint" />
          </mxGeometry>
        </mxCell>
      </root>
    </mxGraphModel>
  </diagram>
  <diagram id="r_bp4vn59xTLsvf5xxse" name="Arsip">
    <mxGraphModel dx="3242" dy="2145" grid="1" gridSize="10" guides="1" tooltips="1" connect="1" arrows="1" fold="1" page="1" pageScale="1" pageWidth="827" pageHeight="1169" math="0" shadow="0">
      <root>
        <mxCell id="0" />
        <mxCell id="1" parent="0" />
        <mxCell id="qaKGI_E1r_sy5m4QF_93-1" value="" style="strokeWidth=1;shadow=0;dashed=0;align=center;html=1;shape=mxgraph.mockup.containers.browserWindow;rSize=0;strokeColor=#666666;strokeColor2=#008cff;strokeColor3=#c4c4c4;mainText=,;recursiveResize=0;sketch=1;hachureGap=4;jiggle=2;curveFitting=1;fontFamily=Architects Daughter;fontSource=https%3A%2F%2Ffonts.googleapis.com%2Fcss%3Ffamily%3DArchitects%2BDaughter;fontSize=20;movable=1;resizable=1;rotatable=1;deletable=1;editable=1;locked=0;connectable=1;" parent="1" vertex="1">
          <mxGeometry x="-1610" y="-1080" width="910" height="630" as="geometry" />
        </mxCell>
        <mxCell id="qaKGI_E1r_sy5m4QF_93-2" value="Page 1" style="strokeWidth=1;shadow=0;dashed=0;align=center;html=1;shape=mxgraph.mockup.containers.anchor;fontSize=17;fontColor=#666666;align=left;whiteSpace=wrap;sketch=1;hachureGap=4;jiggle=2;curveFitting=1;fontFamily=Architects Daughter;fontSource=https%3A%2F%2Ffonts.googleapis.com%2Fcss%3Ffamily%3DArchitects%2BDaughter;" parent="qaKGI_E1r_sy5m4QF_93-1" vertex="1">
          <mxGeometry x="60" y="12" width="110" height="26" as="geometry" />
        </mxCell>
        <mxCell id="qaKGI_E1r_sy5m4QF_93-3" value="https://www.myapp.com/arsip" style="strokeWidth=1;shadow=0;dashed=0;align=center;html=1;shape=mxgraph.mockup.containers.anchor;rSize=0;fontSize=17;fontColor=#666666;align=left;sketch=1;hachureGap=4;jiggle=2;curveFitting=1;fontFamily=Architects Daughter;fontSource=https%3A%2F%2Ffonts.googleapis.com%2Fcss%3Ffamily%3DArchitects%2BDaughter;" parent="qaKGI_E1r_sy5m4QF_93-1" vertex="1">
          <mxGeometry x="130" y="60" width="250" height="26" as="geometry" />
        </mxCell>
        <mxCell id="qaKGI_E1r_sy5m4QF_93-4" value="Arsip" style="swimlane;fontStyle=0;childLayout=stackLayout;horizontal=1;startSize=30;horizontalStack=0;resizeParent=1;resizeParentMax=0;resizeLast=0;collapsible=1;marginBottom=0;whiteSpace=wrap;html=1;sketch=1;hachureGap=4;jiggle=2;curveFitting=1;fontFamily=Architects Daughter;fontSource=https%3A%2F%2Ffonts.googleapis.com%2Fcss%3Ffamily%3DArchitects%2BDaughter;fontSize=20;" parent="qaKGI_E1r_sy5m4QF_93-1" vertex="1">
          <mxGeometry x="285" y="220" width="340" height="330" as="geometry" />
        </mxCell>
        <mxCell id="qaKGI_E1r_sy5m4QF_93-5" value="&lt;font style=&quot;font-size: 10px;&quot;&gt;Judul kegiatan&lt;/font&gt;" style="text;strokeColor=none;fillColor=none;align=left;verticalAlign=middle;spacingLeft=4;spacingRight=4;overflow=hidden;points=[[0,0.5],[1,0.5]];portConstraint=eastwest;rotatable=0;whiteSpace=wrap;html=1;fontSize=20;fontFamily=Architects Daughter;" parent="qaKGI_E1r_sy5m4QF_93-4" vertex="1">
          <mxGeometry y="30" width="340" height="30" as="geometry" />
        </mxCell>
        <mxCell id="qaKGI_E1r_sy5m4QF_93-6" value="&lt;font style=&quot;font-size: 10px;&quot;&gt;Judul kegiatan&lt;/font&gt;" style="text;strokeColor=none;fillColor=none;align=left;verticalAlign=middle;spacingLeft=4;spacingRight=4;overflow=hidden;points=[[0,0.5],[1,0.5]];portConstraint=eastwest;rotatable=0;whiteSpace=wrap;html=1;fontSize=20;fontFamily=Architects Daughter;" parent="qaKGI_E1r_sy5m4QF_93-4" vertex="1">
          <mxGeometry y="60" width="340" height="30" as="geometry" />
        </mxCell>
        <mxCell id="qaKGI_E1r_sy5m4QF_93-7" value="&lt;font style=&quot;font-size: 10px;&quot;&gt;Judul kegiatan&lt;/font&gt;" style="text;strokeColor=none;fillColor=none;align=left;verticalAlign=middle;spacingLeft=4;spacingRight=4;overflow=hidden;points=[[0,0.5],[1,0.5]];portConstraint=eastwest;rotatable=0;whiteSpace=wrap;html=1;fontSize=20;fontFamily=Architects Daughter;" parent="qaKGI_E1r_sy5m4QF_93-4" vertex="1">
          <mxGeometry y="90" width="340" height="30" as="geometry" />
        </mxCell>
        <mxCell id="qaKGI_E1r_sy5m4QF_93-8" value="&lt;font style=&quot;font-size: 10px;&quot;&gt;Judul kegiatan&lt;/font&gt;" style="text;strokeColor=none;fillColor=none;align=left;verticalAlign=middle;spacingLeft=4;spacingRight=4;overflow=hidden;points=[[0,0.5],[1,0.5]];portConstraint=eastwest;rotatable=0;whiteSpace=wrap;html=1;fontSize=20;fontFamily=Architects Daughter;" parent="qaKGI_E1r_sy5m4QF_93-4" vertex="1">
          <mxGeometry y="120" width="340" height="30" as="geometry" />
        </mxCell>
        <mxCell id="qaKGI_E1r_sy5m4QF_93-28" value="&lt;font style=&quot;font-size: 10px;&quot;&gt;Judul kegiatan&lt;/font&gt;" style="text;strokeColor=none;fillColor=none;align=left;verticalAlign=middle;spacingLeft=4;spacingRight=4;overflow=hidden;points=[[0,0.5],[1,0.5]];portConstraint=eastwest;rotatable=0;whiteSpace=wrap;html=1;fontSize=20;fontFamily=Architects Daughter;" parent="qaKGI_E1r_sy5m4QF_93-4" vertex="1">
          <mxGeometry y="150" width="340" height="30" as="geometry" />
        </mxCell>
        <mxCell id="qaKGI_E1r_sy5m4QF_93-29" value="&lt;font style=&quot;font-size: 10px;&quot;&gt;Judul kegiatan&lt;/font&gt;" style="text;strokeColor=none;fillColor=none;align=left;verticalAlign=middle;spacingLeft=4;spacingRight=4;overflow=hidden;points=[[0,0.5],[1,0.5]];portConstraint=eastwest;rotatable=0;whiteSpace=wrap;html=1;fontSize=20;fontFamily=Architects Daughter;" parent="qaKGI_E1r_sy5m4QF_93-4" vertex="1">
          <mxGeometry y="180" width="340" height="30" as="geometry" />
        </mxCell>
        <mxCell id="qaKGI_E1r_sy5m4QF_93-30" value="&lt;font style=&quot;font-size: 10px;&quot;&gt;Judul kegiatan&lt;/font&gt;" style="text;strokeColor=none;fillColor=none;align=left;verticalAlign=middle;spacingLeft=4;spacingRight=4;overflow=hidden;points=[[0,0.5],[1,0.5]];portConstraint=eastwest;rotatable=0;whiteSpace=wrap;html=1;fontSize=20;fontFamily=Architects Daughter;" parent="qaKGI_E1r_sy5m4QF_93-4" vertex="1">
          <mxGeometry y="210" width="340" height="30" as="geometry" />
        </mxCell>
        <mxCell id="qaKGI_E1r_sy5m4QF_93-31" value="&lt;font style=&quot;font-size: 10px;&quot;&gt;Judul kegiatan&lt;/font&gt;" style="text;strokeColor=none;fillColor=none;align=left;verticalAlign=middle;spacingLeft=4;spacingRight=4;overflow=hidden;points=[[0,0.5],[1,0.5]];portConstraint=eastwest;rotatable=0;whiteSpace=wrap;html=1;fontSize=20;fontFamily=Architects Daughter;" parent="qaKGI_E1r_sy5m4QF_93-4" vertex="1">
          <mxGeometry y="240" width="340" height="30" as="geometry" />
        </mxCell>
        <mxCell id="qaKGI_E1r_sy5m4QF_93-32" value="&lt;font style=&quot;font-size: 10px;&quot;&gt;Judul kegiatan&lt;/font&gt;" style="text;strokeColor=none;fillColor=none;align=left;verticalAlign=middle;spacingLeft=4;spacingRight=4;overflow=hidden;points=[[0,0.5],[1,0.5]];portConstraint=eastwest;rotatable=0;whiteSpace=wrap;html=1;fontSize=20;fontFamily=Architects Daughter;" parent="qaKGI_E1r_sy5m4QF_93-4" vertex="1">
          <mxGeometry y="270" width="340" height="30" as="geometry" />
        </mxCell>
        <mxCell id="qaKGI_E1r_sy5m4QF_93-33" value="&lt;font style=&quot;font-size: 10px;&quot;&gt;Judul kegiatan&lt;/font&gt;" style="text;strokeColor=none;fillColor=none;align=left;verticalAlign=middle;spacingLeft=4;spacingRight=4;overflow=hidden;points=[[0,0.5],[1,0.5]];portConstraint=eastwest;rotatable=0;whiteSpace=wrap;html=1;fontSize=20;fontFamily=Architects Daughter;" parent="qaKGI_E1r_sy5m4QF_93-4" vertex="1">
          <mxGeometry y="300" width="340" height="30" as="geometry" />
        </mxCell>
        <mxCell id="qaKGI_E1r_sy5m4QF_93-9" value="" style="rounded=1;whiteSpace=wrap;html=1;sketch=1;hachureGap=4;jiggle=2;curveFitting=1;fontFamily=Architects Daughter;fontSource=https%3A%2F%2Ffonts.googleapis.com%2Fcss%3Ffamily%3DArchitects%2BDaughter;fontSize=20;" parent="qaKGI_E1r_sy5m4QF_93-1" vertex="1">
          <mxGeometry y="110" width="910" height="60" as="geometry" />
        </mxCell>
        <mxCell id="qaKGI_E1r_sy5m4QF_93-10" value="Kanban Board" style="text;html=1;strokeColor=none;fillColor=none;align=center;verticalAlign=middle;whiteSpace=wrap;rounded=0;fontSize=20;fontFamily=Architects Daughter;" parent="qaKGI_E1r_sy5m4QF_93-1" vertex="1">
          <mxGeometry x="60" y="125" width="200" height="30" as="geometry" />
        </mxCell>
        <mxCell id="qaKGI_E1r_sy5m4QF_93-11" value="" style="rounded=0;whiteSpace=wrap;html=1;sketch=1;hachureGap=4;jiggle=2;curveFitting=1;fontFamily=Architects Daughter;fontSource=https%3A%2F%2Ffonts.googleapis.com%2Fcss%3Ffamily%3DArchitects%2BDaughter;fontSize=20;fillColor=#C130FF;strokeColor=#d79b00;gradientColor=none;" parent="qaKGI_E1r_sy5m4QF_93-1" vertex="1">
          <mxGeometry x="20" y="120" width="40" height="40" as="geometry" />
        </mxCell>
        <mxCell id="ROREPj1zDYktTPCmtOEr-1" value="" style="group" vertex="1" connectable="0" parent="1">
          <mxGeometry x="-1240" y="-380" width="350" height="50" as="geometry" />
        </mxCell>
        <mxCell id="ROREPj1zDYktTPCmtOEr-2" value="&lt;font style=&quot;font-size: 20px;&quot;&gt;Judul kegiatan&lt;/font&gt;" style="rounded=0;whiteSpace=wrap;html=1;sketch=1;hachureGap=4;jiggle=2;curveFitting=1;fontFamily=Architects Daughter;fontSource=https://fonts.googleapis.com/css?family=Architects+Daughter;fontSize=20;align=left;container=0;" vertex="1" parent="ROREPj1zDYktTPCmtOEr-1">
          <mxGeometry width="350" height="50" as="geometry" />
        </mxCell>
        <mxCell id="ROREPj1zDYktTPCmtOEr-3" value="" style="triangle;whiteSpace=wrap;html=1;sketch=1;hachureGap=4;jiggle=2;curveFitting=1;fontFamily=Architects Daughter;fontSource=https://fonts.googleapis.com/css?family=Architects+Daughter;fontSize=20;rotation=90;container=0;" vertex="1" parent="ROREPj1zDYktTPCmtOEr-1">
          <mxGeometry x="300.6134969325153" y="16.666666666666686" width="21.47239263803681" height="16.666666666666664" as="geometry" />
        </mxCell>
        <mxCell id="ROREPj1zDYktTPCmtOEr-4" value="" style="group" vertex="1" connectable="0" parent="1">
          <mxGeometry x="-1240" y="-280" width="350" height="50" as="geometry" />
        </mxCell>
        <mxCell id="ROREPj1zDYktTPCmtOEr-5" value="&lt;font style=&quot;font-size: 23px;&quot;&gt;Log terbaru&lt;/font&gt;" style="rounded=0;whiteSpace=wrap;html=1;sketch=1;hachureGap=4;jiggle=2;curveFitting=1;fontFamily=Architects Daughter;fontSource=https://fonts.googleapis.com/css?family=Architects+Daughter;fontSize=20;align=left;container=0;" vertex="1" parent="ROREPj1zDYktTPCmtOEr-4">
          <mxGeometry width="350" height="50" as="geometry" />
        </mxCell>
        <mxCell id="ROREPj1zDYktTPCmtOEr-6" value="" style="group" vertex="1" connectable="0" parent="1">
          <mxGeometry x="-1240" y="-330" width="350" height="50" as="geometry" />
        </mxCell>
        <mxCell id="ROREPj1zDYktTPCmtOEr-7" value="" style="rounded=0;whiteSpace=wrap;html=1;sketch=1;hachureGap=4;jiggle=2;curveFitting=1;fontFamily=Architects Daughter;fontSource=https://fonts.googleapis.com/css?family=Architects+Daughter;fontSize=20;align=left;container=0;" vertex="1" parent="ROREPj1zDYktTPCmtOEr-6">
          <mxGeometry width="350" height="50" as="geometry" />
        </mxCell>
        <mxCell id="ROREPj1zDYktTPCmtOEr-9" value="&lt;font style=&quot;font-size: 14px;&quot;&gt;Piindahkan&lt;/font&gt;" style="rounded=0;whiteSpace=wrap;html=1;sketch=1;hachureGap=4;jiggle=2;curveFitting=1;fontFamily=Architects Daughter;fontSource=https://fonts.googleapis.com/css?family=Architects+Daughter;fontSize=5;container=0;" vertex="1" parent="ROREPj1zDYktTPCmtOEr-6">
          <mxGeometry x="120" y="9.16" width="80" height="31.67" as="geometry" />
        </mxCell>
        <mxCell id="ROREPj1zDYktTPCmtOEr-10" value="&lt;font style=&quot;font-size: 14px;&quot;&gt;Detail&lt;/font&gt;" style="rounded=0;whiteSpace=wrap;html=1;sketch=1;hachureGap=4;jiggle=2;curveFitting=1;fontFamily=Architects Daughter;fontSource=https://fonts.googleapis.com/css?family=Architects+Daughter;fontSize=5;container=0;" vertex="1" parent="ROREPj1zDYktTPCmtOEr-6">
          <mxGeometry x="20" y="9.160000000000002" width="80" height="31.67" as="geometry" />
        </mxCell>
        <mxCell id="ROREPj1zDYktTPCmtOEr-11" value="" style="endArrow=classic;html=1;rounded=0;sketch=1;hachureGap=4;jiggle=2;curveFitting=1;fontFamily=Architects Daughter;fontSource=https%3A%2F%2Ffonts.googleapis.com%2Fcss%3Ffamily%3DArchitects%2BDaughter;fontSize=16;entryX=0.44;entryY=-0.02;entryDx=0;entryDy=0;entryPerimeter=0;" edge="1" parent="1" source="qaKGI_E1r_sy5m4QF_93-29" target="ROREPj1zDYktTPCmtOEr-2">
          <mxGeometry width="50" height="50" relative="1" as="geometry">
            <mxPoint x="-1250" y="-630" as="sourcePoint" />
            <mxPoint x="-1200" y="-680" as="targetPoint" />
          </mxGeometry>
        </mxCell>
      </root>
    </mxGraphModel>
  </diagram>
  <diagram id="DECPkpkJgQzDZf2gVDcc" name="Detail_Kegiatan">
    <mxGraphModel dx="5128" dy="2796" grid="1" gridSize="10" guides="1" tooltips="1" connect="1" arrows="1" fold="1" page="1" pageScale="1" pageWidth="827" pageHeight="1169" math="0" shadow="0">
      <root>
        <mxCell id="0" />
        <mxCell id="1" parent="0" />
        <mxCell id="vZUKwY444aTZcTL0j6bd-12" value="" style="strokeWidth=1;shadow=0;dashed=0;align=center;html=1;shape=mxgraph.mockup.containers.browserWindow;rSize=0;strokeColor=#666666;strokeColor2=#008cff;strokeColor3=#c4c4c4;mainText=,;recursiveResize=0;sketch=1;hachureGap=4;jiggle=2;curveFitting=1;fontFamily=Architects Daughter;fontSource=https%3A%2F%2Ffonts.googleapis.com%2Fcss%3Ffamily%3DArchitects%2BDaughter;fontSize=20;movable=1;resizable=1;rotatable=1;deletable=1;editable=1;locked=0;connectable=1;" vertex="1" parent="1">
          <mxGeometry x="-800" y="-1100" width="910" height="630" as="geometry" />
        </mxCell>
        <mxCell id="vZUKwY444aTZcTL0j6bd-13" value="Page 1" style="strokeWidth=1;shadow=0;dashed=0;align=center;html=1;shape=mxgraph.mockup.containers.anchor;fontSize=17;fontColor=#666666;align=left;whiteSpace=wrap;sketch=1;hachureGap=4;jiggle=2;curveFitting=1;fontFamily=Architects Daughter;fontSource=https%3A%2F%2Ffonts.googleapis.com%2Fcss%3Ffamily%3DArchitects%2BDaughter;" vertex="1" parent="vZUKwY444aTZcTL0j6bd-12">
          <mxGeometry x="60" y="12" width="110" height="26" as="geometry" />
        </mxCell>
        <mxCell id="vZUKwY444aTZcTL0j6bd-14" value="https://www.myapp.com/Keinginan/1" style="strokeWidth=1;shadow=0;dashed=0;align=center;html=1;shape=mxgraph.mockup.containers.anchor;rSize=0;fontSize=17;fontColor=#666666;align=left;sketch=1;hachureGap=4;jiggle=2;curveFitting=1;fontFamily=Architects Daughter;fontSource=https%3A%2F%2Ffonts.googleapis.com%2Fcss%3Ffamily%3DArchitects%2BDaughter;" vertex="1" parent="vZUKwY444aTZcTL0j6bd-12">
          <mxGeometry x="130" y="60" width="250" height="26" as="geometry" />
        </mxCell>
        <mxCell id="z43HNkZ0FwLjWVJRcGf7-1" value="" style="strokeWidth=1;shadow=0;dashed=0;align=center;html=1;shape=mxgraph.mockup.forms.rrect;rSize=0;sketch=1;hachureGap=4;jiggle=2;curveFitting=1;fontFamily=Architects Daughter;fontSource=https%3A%2F%2Ffonts.googleapis.com%2Fcss%3Ffamily%3DArchitects%2BDaughter;fontSize=20;fillColor=#f5f5f5;fontColor=#333333;strokeColor=#666666;" vertex="1" parent="vZUKwY444aTZcTL0j6bd-12">
          <mxGeometry x="350" y="200" width="200" height="280" as="geometry" />
        </mxCell>
        <mxCell id="z43HNkZ0FwLjWVJRcGf7-2" value="Popup form" style="strokeWidth=1;shadow=0;dashed=0;align=center;html=1;shape=mxgraph.mockup.forms.anchor;fontSize=12;fontColor=#666666;align=left;resizeWidth=1;spacingLeft=0;sketch=1;hachureGap=4;jiggle=2;curveFitting=1;fontFamily=Architects Daughter;fontSource=https%3A%2F%2Ffonts.googleapis.com%2Fcss%3Ffamily%3DArchitects%2BDaughter;" vertex="1" parent="z43HNkZ0FwLjWVJRcGf7-1">
          <mxGeometry width="100" height="20" relative="1" as="geometry">
            <mxPoint x="10" y="10" as="offset" />
          </mxGeometry>
        </mxCell>
        <mxCell id="z43HNkZ0FwLjWVJRcGf7-3" value="" style="shape=line;strokeColor=#ddeeff;strokeWidth=2;html=1;resizeWidth=1;sketch=1;hachureGap=4;jiggle=2;curveFitting=1;fontFamily=Architects Daughter;fontSource=https%3A%2F%2Ffonts.googleapis.com%2Fcss%3Ffamily%3DArchitects%2BDaughter;fontSize=20;" vertex="1" parent="z43HNkZ0FwLjWVJRcGf7-1">
          <mxGeometry width="180" height="10" relative="1" as="geometry">
            <mxPoint x="10" y="30" as="offset" />
          </mxGeometry>
        </mxCell>
        <mxCell id="z43HNkZ0FwLjWVJRcGf7-4" value="lorem ipsum" style="strokeWidth=1;shadow=0;dashed=0;align=center;html=1;shape=mxgraph.mockup.forms.anchor;fontSize=12;fontColor=#666666;align=left;resizeWidth=1;spacingLeft=0;sketch=1;hachureGap=4;jiggle=2;curveFitting=1;fontFamily=Architects Daughter;fontSource=https%3A%2F%2Ffonts.googleapis.com%2Fcss%3Ffamily%3DArchitects%2BDaughter;" vertex="1" parent="z43HNkZ0FwLjWVJRcGf7-1">
          <mxGeometry width="100" height="20" relative="1" as="geometry">
            <mxPoint x="10" y="40" as="offset" />
          </mxGeometry>
        </mxCell>
        <mxCell id="z43HNkZ0FwLjWVJRcGf7-5" value="lorem ipsum" style="strokeWidth=1;shadow=0;dashed=0;align=center;html=1;shape=mxgraph.mockup.forms.anchor;fontSize=12;fontColor=#666666;align=left;resizeWidth=1;spacingLeft=0;sketch=1;hachureGap=4;jiggle=2;curveFitting=1;fontFamily=Architects Daughter;fontSource=https%3A%2F%2Ffonts.googleapis.com%2Fcss%3Ffamily%3DArchitects%2BDaughter;" vertex="1" parent="z43HNkZ0FwLjWVJRcGf7-1">
          <mxGeometry width="100" height="20" relative="1" as="geometry">
            <mxPoint x="10" y="95" as="offset" />
          </mxGeometry>
        </mxCell>
        <mxCell id="z43HNkZ0FwLjWVJRcGf7-6" value="lorem ipsum" style="strokeWidth=1;shadow=0;dashed=0;align=center;html=1;shape=mxgraph.mockup.forms.rrect;rSize=0;strokeColor=#999999;fontColor=#666666;align=left;spacingLeft=5;resizeWidth=1;sketch=1;hachureGap=4;jiggle=2;curveFitting=1;fontFamily=Architects Daughter;fontSource=https%3A%2F%2Ffonts.googleapis.com%2Fcss%3Ffamily%3DArchitects%2BDaughter;fontSize=20;" vertex="1" parent="z43HNkZ0FwLjWVJRcGf7-1">
          <mxGeometry width="150" height="25" relative="1" as="geometry">
            <mxPoint x="10" y="115" as="offset" />
          </mxGeometry>
        </mxCell>
        <mxCell id="z43HNkZ0FwLjWVJRcGf7-7" value="Tambahkan" style="strokeWidth=1;shadow=0;dashed=0;align=center;html=1;shape=mxgraph.mockup.forms.anchor;fontSize=12;fontColor=#666666;align=left;spacingLeft=0;resizeWidth=1;sketch=1;hachureGap=4;jiggle=2;curveFitting=1;fontFamily=Architects Daughter;fontSource=https%3A%2F%2Ffonts.googleapis.com%2Fcss%3Ffamily%3DArchitects%2BDaughter;" vertex="1" parent="z43HNkZ0FwLjWVJRcGf7-1">
          <mxGeometry y="1" width="80" height="20" relative="1" as="geometry">
            <mxPoint x="110" y="-120" as="offset" />
          </mxGeometry>
        </mxCell>
        <mxCell id="z43HNkZ0FwLjWVJRcGf7-8" value="SIGN UP" style="strokeWidth=1;shadow=0;dashed=0;align=center;html=1;shape=mxgraph.mockup.forms.rrect;rSize=5;strokeColor=none;fontColor=#ffffff;fillColor=#66bbff;fontSize=16;fontStyle=1;sketch=1;hachureGap=4;jiggle=2;curveFitting=1;fontFamily=Architects Daughter;fontSource=https%3A%2F%2Ffonts.googleapis.com%2Fcss%3Ffamily%3DArchitects%2BDaughter;" vertex="1" parent="z43HNkZ0FwLjWVJRcGf7-1">
          <mxGeometry y="1" width="80" height="30" relative="1" as="geometry">
            <mxPoint x="20" y="-50" as="offset" />
          </mxGeometry>
        </mxCell>
        <mxCell id="z43HNkZ0FwLjWVJRcGf7-9" value="Lorem ipsum" style="strokeWidth=1;shadow=0;dashed=0;align=center;html=1;shape=mxgraph.mockup.forms.rrect;rSize=0;align=left;spacingLeft=5;resizeWidth=1;sketch=1;hachureGap=4;jiggle=2;curveFitting=1;fontFamily=Architects Daughter;fontSource=https%3A%2F%2Ffonts.googleapis.com%2Fcss%3Ffamily%3DArchitects%2BDaughter;fontSize=20;fillColor=#f5f5f5;fontColor=#333333;strokeColor=#666666;" vertex="1" parent="z43HNkZ0FwLjWVJRcGf7-1">
          <mxGeometry width="150" height="25" relative="1" as="geometry">
            <mxPoint x="10" y="60" as="offset" />
          </mxGeometry>
        </mxCell>
        <mxCell id="z43HNkZ0FwLjWVJRcGf7-10" value="Batal" style="strokeWidth=1;shadow=0;dashed=0;align=center;html=1;shape=mxgraph.mockup.forms.anchor;fontSize=12;fontColor=#666666;align=left;spacingLeft=0;resizeWidth=1;sketch=1;hachureGap=4;jiggle=2;curveFitting=1;fontFamily=Architects Daughter;fontSource=https%3A%2F%2Ffonts.googleapis.com%2Fcss%3Ffamily%3DArchitects%2BDaughter;" vertex="1" parent="z43HNkZ0FwLjWVJRcGf7-1">
          <mxGeometry y="1" width="80" height="20" relative="1" as="geometry">
            <mxPoint x="19" y="-120" as="offset" />
          </mxGeometry>
        </mxCell>
        <mxCell id="n6eP1Hg15JuiNLzF7HlA-1" value="" style="strokeWidth=1;shadow=0;dashed=0;align=center;html=1;shape=mxgraph.mockup.containers.browserWindow;rSize=0;strokeColor=#666666;strokeColor2=#008cff;strokeColor3=#c4c4c4;mainText=,;recursiveResize=0;sketch=1;hachureGap=4;jiggle=2;curveFitting=1;fontFamily=Architects Daughter;fontSource=https%3A%2F%2Ffonts.googleapis.com%2Fcss%3Ffamily%3DArchitects%2BDaughter;fontSize=20;movable=1;resizable=1;rotatable=1;deletable=1;editable=1;locked=0;connectable=1;" vertex="1" parent="1">
          <mxGeometry x="-1780" y="-1100" width="910" height="630" as="geometry" />
        </mxCell>
        <mxCell id="n6eP1Hg15JuiNLzF7HlA-2" value="Page 1" style="strokeWidth=1;shadow=0;dashed=0;align=center;html=1;shape=mxgraph.mockup.containers.anchor;fontSize=17;fontColor=#666666;align=left;whiteSpace=wrap;sketch=1;hachureGap=4;jiggle=2;curveFitting=1;fontFamily=Architects Daughter;fontSource=https%3A%2F%2Ffonts.googleapis.com%2Fcss%3Ffamily%3DArchitects%2BDaughter;" vertex="1" parent="n6eP1Hg15JuiNLzF7HlA-1">
          <mxGeometry x="60" y="12" width="110" height="26" as="geometry" />
        </mxCell>
        <mxCell id="n6eP1Hg15JuiNLzF7HlA-3" value="https://www.myapp.com/Keinginan/1" style="strokeWidth=1;shadow=0;dashed=0;align=center;html=1;shape=mxgraph.mockup.containers.anchor;rSize=0;fontSize=17;fontColor=#666666;align=left;sketch=1;hachureGap=4;jiggle=2;curveFitting=1;fontFamily=Architects Daughter;fontSource=https%3A%2F%2Ffonts.googleapis.com%2Fcss%3Ffamily%3DArchitects%2BDaughter;" vertex="1" parent="n6eP1Hg15JuiNLzF7HlA-1">
          <mxGeometry x="130" y="60" width="250" height="26" as="geometry" />
        </mxCell>
        <mxCell id="n6eP1Hg15JuiNLzF7HlA-4" value="Judul Kegiatan" style="swimlane;fontStyle=0;childLayout=stackLayout;horizontal=1;startSize=30;horizontalStack=0;resizeParent=1;resizeParentMax=0;resizeLast=0;collapsible=1;marginBottom=0;whiteSpace=wrap;html=1;sketch=1;hachureGap=4;jiggle=2;curveFitting=1;fontFamily=Architects Daughter;fontSource=https%3A%2F%2Ffonts.googleapis.com%2Fcss%3Ffamily%3DArchitects%2BDaughter;fontSize=20;" vertex="1" parent="n6eP1Hg15JuiNLzF7HlA-1">
          <mxGeometry x="80" y="190" width="740" height="60" as="geometry" />
        </mxCell>
        <mxCell id="n6eP1Hg15JuiNLzF7HlA-5" value="&lt;font style=&quot;font-size: 10px;&quot;&gt;Deskripsi&lt;/font&gt;" style="text;strokeColor=none;fillColor=none;align=left;verticalAlign=middle;spacingLeft=4;spacingRight=4;overflow=hidden;points=[[0,0.5],[1,0.5]];portConstraint=eastwest;rotatable=0;whiteSpace=wrap;html=1;fontSize=20;fontFamily=Architects Daughter;" vertex="1" parent="n6eP1Hg15JuiNLzF7HlA-4">
          <mxGeometry y="30" width="740" height="30" as="geometry" />
        </mxCell>
        <mxCell id="n6eP1Hg15JuiNLzF7HlA-15" value="" style="rounded=1;whiteSpace=wrap;html=1;sketch=1;hachureGap=4;jiggle=2;curveFitting=1;fontFamily=Architects Daughter;fontSource=https%3A%2F%2Ffonts.googleapis.com%2Fcss%3Ffamily%3DArchitects%2BDaughter;fontSize=20;" vertex="1" parent="n6eP1Hg15JuiNLzF7HlA-1">
          <mxGeometry y="110" width="910" height="60" as="geometry" />
        </mxCell>
        <mxCell id="n6eP1Hg15JuiNLzF7HlA-16" value="Kanban Board" style="text;html=1;strokeColor=none;fillColor=none;align=center;verticalAlign=middle;whiteSpace=wrap;rounded=0;fontSize=20;fontFamily=Architects Daughter;" vertex="1" parent="n6eP1Hg15JuiNLzF7HlA-1">
          <mxGeometry x="60" y="125" width="200" height="30" as="geometry" />
        </mxCell>
        <mxCell id="n6eP1Hg15JuiNLzF7HlA-17" value="" style="rounded=0;whiteSpace=wrap;html=1;sketch=1;hachureGap=4;jiggle=2;curveFitting=1;fontFamily=Architects Daughter;fontSource=https%3A%2F%2Ffonts.googleapis.com%2Fcss%3Ffamily%3DArchitects%2BDaughter;fontSize=20;fillColor=#C130FF;strokeColor=#d79b00;gradientColor=none;" vertex="1" parent="n6eP1Hg15JuiNLzF7HlA-1">
          <mxGeometry x="20" y="120" width="40" height="40" as="geometry" />
        </mxCell>
        <mxCell id="n6eP1Hg15JuiNLzF7HlA-29" value="Hapus" style="strokeWidth=1;shadow=0;dashed=0;align=center;html=1;shape=mxgraph.mockup.buttons.button;strokeColor=#666666;fontColor=#ffffff;mainText=;buttonStyle=round;fontSize=17;fontStyle=1;fillColor=#008cff;whiteSpace=wrap;sketch=1;hachureGap=4;jiggle=2;curveFitting=1;fontFamily=Architects Daughter;fontSource=https%3A%2F%2Ffonts.googleapis.com%2Fcss%3Ffamily%3DArchitects%2BDaughter;" vertex="1" parent="n6eP1Hg15JuiNLzF7HlA-1">
          <mxGeometry x="670" y="260" width="150" height="50" as="geometry" />
        </mxCell>
        <mxCell id="n6eP1Hg15JuiNLzF7HlA-28" value="Edit" style="strokeWidth=1;shadow=0;dashed=0;align=center;html=1;shape=mxgraph.mockup.buttons.button;strokeColor=#666666;fontColor=#ffffff;mainText=;buttonStyle=round;fontSize=17;fontStyle=1;fillColor=#008cff;whiteSpace=wrap;sketch=1;hachureGap=4;jiggle=2;curveFitting=1;fontFamily=Architects Daughter;fontSource=https%3A%2F%2Ffonts.googleapis.com%2Fcss%3Ffamily%3DArchitects%2BDaughter;" vertex="1" parent="n6eP1Hg15JuiNLzF7HlA-1">
          <mxGeometry x="500" y="260" width="150" height="50" as="geometry" />
        </mxCell>
        <mxCell id="n6eP1Hg15JuiNLzF7HlA-30" value="Tambah log" style="strokeWidth=1;shadow=0;dashed=0;align=center;html=1;shape=mxgraph.mockup.buttons.button;strokeColor=#666666;fontColor=#ffffff;mainText=;buttonStyle=round;fontSize=17;fontStyle=1;fillColor=#008cff;whiteSpace=wrap;sketch=1;hachureGap=4;jiggle=2;curveFitting=1;fontFamily=Architects Daughter;fontSource=https%3A%2F%2Ffonts.googleapis.com%2Fcss%3Ffamily%3DArchitects%2BDaughter;" vertex="1" parent="n6eP1Hg15JuiNLzF7HlA-1">
          <mxGeometry x="70" y="330" width="150" height="50" as="geometry" />
        </mxCell>
        <mxCell id="DleW-nRiQxsauB8_mJI--1" value="" style="group" vertex="1" connectable="0" parent="n6eP1Hg15JuiNLzF7HlA-1">
          <mxGeometry x="70" y="410" width="350" height="50" as="geometry" />
        </mxCell>
        <mxCell id="DleW-nRiQxsauB8_mJI--2" value="&lt;font style=&quot;font-size: 20px;&quot;&gt;Judul log&lt;/font&gt;" style="rounded=0;whiteSpace=wrap;html=1;sketch=1;hachureGap=4;jiggle=2;curveFitting=1;fontFamily=Architects Daughter;fontSource=https://fonts.googleapis.com/css?family=Architects+Daughter;fontSize=20;align=left;container=0;" vertex="1" parent="DleW-nRiQxsauB8_mJI--1">
          <mxGeometry width="350" height="50" as="geometry" />
        </mxCell>
        <mxCell id="DleW-nRiQxsauB8_mJI--3" value="" style="triangle;whiteSpace=wrap;html=1;sketch=1;hachureGap=4;jiggle=2;curveFitting=1;fontFamily=Architects Daughter;fontSource=https://fonts.googleapis.com/css?family=Architects+Daughter;fontSize=20;rotation=90;container=0;" vertex="1" parent="DleW-nRiQxsauB8_mJI--1">
          <mxGeometry x="300.6134969325153" y="16.666666666666686" width="21.47239263803681" height="16.666666666666664" as="geometry" />
        </mxCell>
        <mxCell id="DleW-nRiQxsauB8_mJI--4" value="" style="group" vertex="1" connectable="0" parent="n6eP1Hg15JuiNLzF7HlA-1">
          <mxGeometry x="70" y="460" width="350" height="50" as="geometry" />
        </mxCell>
        <mxCell id="DleW-nRiQxsauB8_mJI--5" value="&lt;font style=&quot;font-size: 19px;&quot;&gt;Deskripsi&lt;/font&gt;" style="rounded=0;whiteSpace=wrap;html=1;sketch=1;hachureGap=4;jiggle=2;curveFitting=1;fontFamily=Architects Daughter;fontSource=https://fonts.googleapis.com/css?family=Architects+Daughter;fontSize=20;align=left;container=0;" vertex="1" parent="DleW-nRiQxsauB8_mJI--4">
          <mxGeometry width="350" height="50" as="geometry" />
        </mxCell>
        <mxCell id="DleW-nRiQxsauB8_mJI--6" value="" style="group" vertex="1" connectable="0" parent="n6eP1Hg15JuiNLzF7HlA-1">
          <mxGeometry x="70" y="510" width="350" height="50" as="geometry" />
        </mxCell>
        <mxCell id="DleW-nRiQxsauB8_mJI--7" value="" style="rounded=0;whiteSpace=wrap;html=1;sketch=1;hachureGap=4;jiggle=2;curveFitting=1;fontFamily=Architects Daughter;fontSource=https://fonts.googleapis.com/css?family=Architects+Daughter;fontSize=20;align=left;container=0;" vertex="1" parent="DleW-nRiQxsauB8_mJI--6">
          <mxGeometry width="350" height="50" as="geometry" />
        </mxCell>
        <mxCell id="DleW-nRiQxsauB8_mJI--8" value="&lt;font style=&quot;font-size: 14px;&quot;&gt;Edit&lt;/font&gt;" style="rounded=0;whiteSpace=wrap;html=1;sketch=1;hachureGap=4;jiggle=2;curveFitting=1;fontFamily=Architects Daughter;fontSource=https://fonts.googleapis.com/css?family=Architects+Daughter;fontSize=5;container=0;" vertex="1" parent="DleW-nRiQxsauB8_mJI--6">
          <mxGeometry x="260" y="9.16" width="80" height="31.67" as="geometry" />
        </mxCell>
        <mxCell id="DleW-nRiQxsauB8_mJI--9" value="&lt;font style=&quot;font-size: 14px;&quot;&gt;Delete&lt;/font&gt;" style="rounded=0;whiteSpace=wrap;html=1;sketch=1;hachureGap=4;jiggle=2;curveFitting=1;fontFamily=Architects Daughter;fontSource=https://fonts.googleapis.com/css?family=Architects+Daughter;fontSize=5;container=0;" vertex="1" parent="DleW-nRiQxsauB8_mJI--6">
          <mxGeometry x="160" y="9.160000000000002" width="80" height="31.67" as="geometry" />
        </mxCell>
        <mxCell id="vZUKwY444aTZcTL0j6bd-11" value="" style="endArrow=classic;startArrow=classic;html=1;rounded=0;sketch=1;hachureGap=4;jiggle=2;curveFitting=1;fontFamily=Architects Daughter;fontSource=https%3A%2F%2Ffonts.googleapis.com%2Fcss%3Ffamily%3DArchitects%2BDaughter;fontSize=16;entryX=-0.016;entryY=0.492;entryDx=0;entryDy=0;entryPerimeter=0;exitX=0.476;exitY=1.025;exitDx=0;exitDy=0;exitPerimeter=0;" edge="1" parent="1" source="n6eP1Hg15JuiNLzF7HlA-28" target="z43HNkZ0FwLjWVJRcGf7-1">
          <mxGeometry width="50" height="50" relative="1" as="geometry">
            <mxPoint x="-1260" y="-730" as="sourcePoint" />
            <mxPoint x="-460.4000000000001" y="-746.3600000000001" as="targetPoint" />
          </mxGeometry>
        </mxCell>
        <mxCell id="z43HNkZ0FwLjWVJRcGf7-11" value="" style="endArrow=classic;startArrow=classic;html=1;rounded=0;sketch=1;hachureGap=4;jiggle=2;curveFitting=1;fontFamily=Architects Daughter;fontSource=https%3A%2F%2Ffonts.googleapis.com%2Fcss%3Ffamily%3DArchitects%2BDaughter;fontSize=16;entryX=0.016;entryY=0.8;entryDx=0;entryDy=0;entryPerimeter=0;" edge="1" parent="1" source="n6eP1Hg15JuiNLzF7HlA-30" target="z43HNkZ0FwLjWVJRcGf7-1">
          <mxGeometry width="50" height="50" relative="1" as="geometry">
            <mxPoint x="-1120" y="-630" as="sourcePoint" />
            <mxPoint x="-1070" y="-680" as="targetPoint" />
          </mxGeometry>
        </mxCell>
        <mxCell id="z43HNkZ0FwLjWVJRcGf7-12" value="" style="endArrow=classic;html=1;rounded=0;sketch=1;hachureGap=4;jiggle=2;curveFitting=1;fontFamily=Architects Daughter;fontSource=https%3A%2F%2Ffonts.googleapis.com%2Fcss%3Ffamily%3DArchitects%2BDaughter;fontSize=16;exitX=1;exitY=0.5;exitDx=0;exitDy=0;entryX=0.152;entryY=1.001;entryDx=0;entryDy=0;entryPerimeter=0;" edge="1" parent="1" source="DleW-nRiQxsauB8_mJI--8" target="z43HNkZ0FwLjWVJRcGf7-1">
          <mxGeometry width="50" height="50" relative="1" as="geometry">
            <mxPoint x="-1120" y="-810" as="sourcePoint" />
            <mxPoint x="-1070" y="-860" as="targetPoint" />
          </mxGeometry>
        </mxCell>
      </root>
    </mxGraphModel>
  </diagram>
</mxfile>
